<?xml version="1.0" encoding="utf-8"?>
<!-- Generator: Adobe Illustrator 24.3.0, SVG Export Plug-In . SVG Version: 6.00 Build 0)  -->
<svg version="1.1" id="Layer_1" xmlns="http://www.w3.org/2000/svg" xmlns:xlink="http://www.w3.org/1999/xlink" x="0px" y="0px"
	 viewBox="0 0 542.31 78.89" style="enable-background:new 0 0 542.31 78.89;" xml:space="preserve">
<style type="text/css">
	.st0{fill:none;}
	.st1{fill:#998BBF;}
	.st2{fill:#FAF9D7;}
</style>
<polygon class="st0" points="432,47.69 433.62,47.69 453.03,47.69 450.37,40.25 442.55,18.39 "/>
<path class="st0" d="M321.36,43.49c5.31,0,9.04-0.47,11.18-1.42c2.14-0.94,3.9-2.58,5.31-4.91c0.21-0.36,0.41-0.73,0.59-1.1
	c1.01-2.07,1.51-4.43,1.51-7.08c0-3.42-0.82-6.27-2.45-8.57c-1.63-2.29-3.85-3.85-6.65-4.66c-1.96-0.55-5.77-0.83-11.44-0.83h-8.56
	v16.44v12.12H321.36z"/>
<path class="st0" d="M87.53,60.36c2.17,4.41,5.08,7.79,8.73,10.13c3.65,2.34,7.76,3.52,12.33,3.52c4.53,0,8.55-1.15,12.04-3.44
	c3.49-2.29,6.38-5.91,8.66-10.84c1.71-3.69,2.78-7.68,3.21-11.98c0.14-1.45,0.22-2.93,0.22-4.45c0-6.12-1.14-11.72-3.42-16.8
	c-1.96-4.36-4.55-7.58-7.78-9.67c-3.23-2.08-7.24-3.12-12.04-3.12c-5.09,0-9.46,1.16-13.11,3.49c-3.65,2.33-6.58,5.75-8.78,10.28
	c-1.93,3.97-3.02,8.77-3.25,14.37c-0.03,0.78-0.05,1.57-0.05,2.37C84.28,50.57,85.36,55.95,87.53,60.36z"/>
<path class="st0" d="M259.04,17.79c-2.69-1.35-5.7-2.21-9.02-2.57c-1.79-0.16-4.79-0.24-9-0.24h-10.02V28.5v44h14.76
	c1.47,0,3.9-0.26,7.31-0.78c3.41-0.52,5.84-1.16,7.31-1.91c2.15-1.11,4.24-2.89,6.26-5.35c2.02-2.46,3.58-5.41,4.67-8.85
	c1.09-3.44,1.64-7.37,1.64-11.8c0-4.4-0.55-8.21-1.64-11.44c-0.58-1.72-1.33-3.34-2.23-4.87c-0.79-1.34-1.68-2.63-2.71-3.83
	C264.17,21.1,261.73,19.14,259.04,17.79z"/>
<path class="st1" d="M14.29,19.21c2.29-4.56,5.29-8.02,8.98-10.38c3.69-2.36,7.74-3.54,12.13-3.54c3.74,0,7.17,0.85,10.28,2.54
	c3.11,1.69,5.7,3.99,7.79,6.88c1.27,1.79,3.12,5.31,5.57,10.55l4.54-1.27L57.39,1.28h-3.52L52.3,5.77c-2.9-1.99-5.75-3.43-8.57-4.32
	c-2.82-0.9-5.87-1.34-9.16-1.34c-6.15,0-11.89,1.58-17.21,4.74C12.04,8,7.87,12.26,4.84,17.61c-1.35,2.39-2.39,4.92-3.14,7.57
	c3.27,0.8,6.55,1.5,9.84,2.13C12.11,24.43,13.02,21.73,14.29,19.21z"/>
<path class="st2" d="M49.61,69.21c-4.52,2.48-8.95,3.72-13.28,3.72c-4.59,0-8.87-1.24-12.84-3.71c-3.97-2.48-7.12-6.01-9.45-10.6
	c-2.33-4.59-3.49-9.82-3.49-15.69c0-2.55,0.24-4.98,0.7-7.3c-3.29-0.62-6.58-1.32-9.84-2.13C0.48,36.77,0,40.23,0,43.88
	c0,1.31,0.06,2.59,0.17,3.84c0.68,7.37,3.36,13.84,8.03,19.4c6.61,7.85,15.2,11.77,25.78,11.77c4.79,0,9.18-0.8,13.18-2.39
	s7.86-4.07,11.57-7.42c2.34-2.08,4.52-4.62,6.54-7.62l-3.91-2.69C58.06,63.25,54.13,66.73,49.61,69.21z"/>
<path class="st1" d="M126.29,6.87c-5.02-2.99-10.64-4.49-16.86-4.49c-6.65,0-12.75,1.55-18.32,4.64c-5.57,3.09-9.87,7.3-12.9,12.62
	c-2.65,4.66-4.15,9.86-4.47,15.59c3.5,0.17,7.01,0.36,10.53,0.57c0.24-5.61,1.32-10.4,3.25-14.37c2.2-4.52,5.13-7.95,8.78-10.28
	c3.65-2.33,8.02-3.49,13.11-3.49c4.79,0,8.81,1.04,12.04,3.12c3.23,2.08,5.82,5.31,7.78,9.67c2.28,5.08,3.42,10.68,3.42,16.8
	c0,1.52-0.07,3-0.22,4.45c2.87-0.12,5.76-0.55,8.71-1.46c0.66-0.2,1.33-0.4,1.99-0.59c0.04-0.77,0.06-1.55,0.06-2.35
	c0-6.77-1.46-12.73-4.37-17.87C135.91,14.27,131.73,10.09,126.29,6.87z"/>
<path class="st2" d="M132.5,47.74c-0.43,4.3-1.5,8.3-3.21,11.98c-2.28,4.93-5.17,8.54-8.66,10.84c-3.49,2.29-7.5,3.44-12.04,3.44
	c-4.57,0-8.68-1.17-12.33-3.52c-3.65-2.34-6.56-5.72-8.73-10.13c-2.17-4.41-3.25-9.79-3.25-16.14c0-0.81,0.02-1.6,0.05-2.37
	c-3.52-0.21-7.03-0.39-10.53-0.57c-0.05,0.81-0.07,1.63-0.07,2.45c0,9.02,2.69,16.76,8.06,23.24c6.58,7.94,15.51,11.91,26.78,11.91
	c10.1,0,18.4-3.3,24.92-9.91c6.02-6.11,9.25-13.87,9.71-23.29c-0.66,0.2-1.33,0.39-1.99,0.59C138.26,47.19,135.36,47.62,132.5,47.74
	z"/>
<path class="st2" d="M198.93,65.34c-2.25,2.33-4.92,4.1-8.01,5.32c-3.09,1.22-6.74,1.83-10.94,1.83h-3.66c-2.18,0-3.5-0.1-3.96-0.29
	c-0.65-0.26-1.07-0.68-1.27-1.27c-0.16-0.42-0.24-1.73-0.24-3.91V38.24c-3.04,0.72-6.09,1.48-9.13,2.27v26.52
	c0,2.02-0.2,3.44-0.59,4.27s-0.94,1.42-1.66,1.78c-0.72,0.36-2.12,0.54-4.2,0.54h-2.15v4.1h49.02l7.62-21.34l-4.35-1.46
	C203.34,59.54,201.17,63.01,198.93,65.34z"/>
<path class="st1" d="M170.85,13.94c0-1.77,0.18-3,0.54-3.69c0.36-0.69,0.93-1.21,1.71-1.58c0.78-0.36,2.12-0.54,4-0.54h2.44v-4.1
	h-26.42v4.1h2.15c2.21,0,3.66,0.17,4.35,0.52c0.68,0.34,1.2,0.92,1.56,1.72c0.36,0.8,0.54,2.38,0.54,4.74v19.82
	c3.04-0.79,6.09-1.54,9.13-2.27V13.94z"/>
<path class="st2" d="M269.08,27.5c0.9,1.53,1.65,3.15,2.23,4.87c1.09,3.23,1.64,7.04,1.64,11.44c0,4.43-0.55,8.36-1.64,11.8
	c-1.09,3.44-2.65,6.39-4.67,8.85c-2.02,2.46-4.11,4.24-6.26,5.35c-1.47,0.75-3.9,1.38-7.31,1.91c-3.41,0.52-5.84,0.78-7.31,0.78
	h-14.76v-44c-3.01,0.24-6.02,0.53-9.03,0.85v37.33c0,2.25-0.11,3.68-0.34,4.3c-0.33,0.81-0.87,1.46-1.64,1.95
	c-0.77,0.49-1.75,0.73-2.95,0.73l-0.93-0.05h-2.83v4.1h34.81c4.23,0,8.43-0.5,12.6-1.49c4.17-0.99,7.73-2.69,10.69-5.1
	c3.58-2.86,6.47-6.65,8.67-11.35c2.2-4.7,3.3-9.79,3.3-15.26c0-6.03-1.26-11.55-3.77-16.53C276.07,27.77,272.57,27.61,269.08,27.5z"
	/>
<path class="st1" d="M231.01,9.2h10.02c4.2,0,7.2,0.08,9,0.24c3.32,0.36,6.33,1.21,9.02,2.57c2.69,1.35,5.13,3.31,7.33,5.89
	c1.03,1.2,1.92,2.48,2.71,3.83c3.49,0.1,6.99,0.26,10.5,0.48c-0.84-1.66-1.81-3.26-2.92-4.8c-4.04-5.6-9.29-9.42-15.77-11.47
	c-4.39-1.4-12.16-2.1-23.29-2.1h-24.32v4.1c3.42,0,5.42,0.1,6.01,0.3c1.01,0.39,1.74,1.1,2.2,2.11c0.33,0.75,0.49,2.43,0.49,5.01
	v8.22c3.01-0.32,6.02-0.61,9.03-0.85V9.2z"/>
<path class="st1" d="M336.85,2.16c-3.09-1.04-8.73-1.56-16.91-1.56h-26.93v4.1h1.61c2.34,0,3.91,0.17,4.71,0.52
	c0.8,0.34,1.37,0.89,1.71,1.62c0.34,0.74,0.51,2.19,0.51,4.35v9.87c2.87,0.37,5.75,0.77,8.64,1.22c0.21,0.03,0.42,0.06,0.63,0.08
	V5.92h8.56c5.67,0,9.49,0.28,11.44,0.83c2.8,0.81,5.02,2.37,6.65,4.66c1.63,2.29,2.45,5.15,2.45,8.57c0,2.65-0.51,5-1.51,7.08
	c3.15,0.7,6.28,1.46,9.42,2.29c1.59-2.7,2.4-5.83,2.4-9.42c0-4.62-1.26-8.43-3.79-11.43C343.93,5.51,340.73,3.4,336.85,2.16z"/>
<path class="st2" d="M337.84,37.17c-1.4,2.33-3.17,3.96-5.31,4.91c-2.14,0.94-5.86,1.42-11.18,1.42h-10.52V31.37
	c-0.21-0.03-0.42-0.06-0.63-0.08c-2.89-0.45-5.77-0.85-8.64-1.22v36.71c0,2.21-0.19,3.72-0.56,4.52c-0.38,0.8-0.97,1.38-1.78,1.76
	c-0.81,0.37-2.34,0.56-4.59,0.56h-1.61v4.1h26.37v-4.1h-2.34c-2.08,0-3.47-0.19-4.15-0.56c-0.68-0.37-1.22-1.03-1.61-1.98
	c-0.29-0.68-0.44-2.33-0.44-4.93V48.67h12.47c7.1,0,12.31-0.72,15.62-2.17c3.31-1.45,6.12-3.9,8.43-7.35
	c0.17-0.26,0.33-0.52,0.48-0.79c-3.13-0.83-6.27-1.59-9.42-2.29C338.25,36.44,338.05,36.81,337.84,37.17z"/>
<path class="st2" d="M406.47,56.92c-1.79,3.63-3.64,6.45-5.55,8.42c-2.25,2.33-4.92,4.1-8.01,5.32c-3.09,1.22-6.74,1.83-10.94,1.83
	h-3.66c-2.18,0-3.5-0.1-3.96-0.29c-0.65-0.26-1.07-0.68-1.27-1.27c-0.16-0.42-0.24-1.73-0.24-3.91V46.49
	c-3.03-1.18-6.08-2.29-9.13-3.34v23.87c0,2.02-0.2,3.44-0.59,4.27s-0.94,1.42-1.66,1.78c-0.72,0.36-2.12,0.54-4.2,0.54h-2.15v4.1
	h49.02l7.45-20.87C409.9,56.97,408.19,56.99,406.47,56.92z"/>
<path class="st1" d="M372.85,10.95c0-1.77,0.18-3,0.54-3.69c0.36-0.69,0.93-1.21,1.71-1.58c0.78-0.36,2.12-0.54,4-0.54h2.44v-4.1
	h-26.42v4.1h2.15c2.21,0,3.66,0.17,4.35,0.52c0.68,0.34,1.2,0.92,1.56,1.72c0.36,0.8,0.54,2.38,0.54,4.74v22.47
	c3.06,1.04,6.1,2.15,9.13,3.34V10.95z"/>
<path class="st1" d="M434.41,39.61h-1.62l10.55-29.3l7.82,21.85c3.05-0.8,6.11-1.27,9.12-1.34l-10.91-29.3h-7.99l-16.62,44.11
	c1.46-0.69,2.87-1.49,4.23-2.43C430.76,41.94,432.57,40.73,434.41,39.61z"/>
<path class="st2" d="M472.93,72.23c-1.06-0.93-2.11-2.82-3.15-5.68l-10.29-27.64c-3.02,0.07-6.07,0.53-9.12,1.34l2.66,7.44h-19.41
	c-1.83,1.12-3.64,2.33-5.42,3.6c-1.36,0.94-2.77,1.74-4.23,2.43L419.35,66c-1.01,2.67-1.82,4.42-2.44,5.25s-1.34,1.43-2.17,1.81
	c-0.83,0.37-2.19,0.56-4.08,0.56v4.1h20.36v-4.1c-0.55-0.03-1.27-0.05-2.15-0.05c-1.3,0-2.25-0.12-2.83-0.37s-1.05-0.61-1.39-1.1
	s-0.51-1.06-0.51-1.71c0-0.59,0.28-1.64,0.83-3.17l5.31-14.75h24.68l4.51,13.18c0.91,2.67,1.37,4.35,1.37,5.03
	c0,0.94-0.47,1.73-1.42,2.34c-0.49,0.33-1.51,0.49-3.08,0.49c-0.75,0-1.51,0.03-2.29,0.1v4.1h24.24v-4.1h-1.07
	C475.42,73.62,473.99,73.15,472.93,72.23z"/>
<path class="st2" d="M505.76,66.59c0,2.41-0.15,3.92-0.44,4.54c-0.42,0.88-1,1.51-1.73,1.9s-2.19,0.59-4.37,0.59h-2.05v4.1h26.61
	v-4.1c-3.22,0-5.27-0.17-6.15-0.51s-1.52-0.89-1.93-1.64c-0.41-0.75-0.61-2.38-0.61-4.88v-9.82c-3.12-0.24-6.23-0.78-9.32-1.55
	L505.76,66.59z"/>
<path class="st1" d="M521.24,0v4.1h2.54c1.5,0,2.41,0.03,2.73,0.1c0.52,0.16,0.9,0.4,1.15,0.71c0.24,0.31,0.37,0.7,0.37,1.16
	c0,0.33-0.06,0.65-0.17,0.96c-0.11,0.31-0.46,1-1.05,2.05l-14.69,25.53l-13.29-24.6c-0.26-0.49-0.47-0.87-0.63-1.13
	c-0.62-1.12-0.93-2-0.93-2.66c0-0.75,0.25-1.3,0.76-1.62c0.5-0.33,1.64-0.49,3.39-0.49h2.88V0H478.8v4.1
	c2.6,0.07,4.39,0.35,5.35,0.86s2.16,2.06,3.59,4.66l18.03,32.03l0,3.96c3.09,0.77,6.2,1.3,9.32,1.55v-7.31L533.57,9.1
	c1.04-1.75,1.85-2.89,2.42-3.44c0.57-0.54,1.3-0.95,2.2-1.21c0.9-0.26,2.27-0.38,4.13-0.35V0H521.24z"/>
</svg>
