<?xml version="1.0" encoding="utf-8"?>
<!-- Generator: Adobe Illustrator 24.3.0, SVG Export Plug-In . SVG Version: 6.00 Build 0)  -->
<svg version="1.1" id="Layer_1" xmlns="http://www.w3.org/2000/svg" xmlns:xlink="http://www.w3.org/1999/xlink" x="0px" y="0px"
	 viewBox="0 0 131.32 62.65" style="enable-background:new 0 0 131.32 62.65;" xml:space="preserve">
<style type="text/css">
	.st0{fill:none;stroke:#000000;stroke-width:2;stroke-miterlimit:10;}
	.st1{fill:#382F8B;}
	.st2{fill:none;}
	.st3{fill:#46429A;}
	.st4{font-family:'MyriadPro-Regular';}
	.st5{font-size:45px;}
</style>
<path class="st0" d="M-78.03-37.25"/>
<g>
	<path class="st1" d="M111.58,38.93"/>
	<path class="st0" d="M-3.52,48.96"/>
	<path class="st2" d="M102.21,55.66L-6.39,57.07c0,0,32.24,5.58,57.07,5.58C74.89,62.65,100.89,56,102.21,55.66z"/>
	<path class="st1" d="M130.98,37.66c-1.54-8.84-16.45-4.18-23.64-1.37c-1.01,0.39-0.78,1.88,0.29,1.96l10.11,0.84
		c3.59,0.31,6.32,3.36,6.24,6.96l0.91,10.32c0.09,0.99,1.38,1.29,1.89,0.44C128.97,53.17,132.41,45.86,130.98,37.66z"/>
	<path class="st1" d="M62.78,52.39c-22.18,0-49.9-4.17-58.29-5.53c-0.33-0.05-0.45,0.41-0.14,0.54
		c74.79,29.41,114.66-2.48,114.66-2.48l-0.58,0.01c-0.5,0.01-0.98,0.07-1.46,0.19C112.28,46.28,86.7,52.39,62.78,52.39z"/>
	<rect x="1.97" y="1.25" class="st2" width="114.8" height="36.82"/>
	<text transform="matrix(1 0 0 1 1.9702 33.2035)" class="st3 st4 st5">music</text>
</g>
</svg>
