<?xml version="1.0" encoding="utf-8"?>
<!-- Generator: Adobe Illustrator 24.3.0, SVG Export Plug-In . SVG Version: 6.00 Build 0)  -->
<svg version="1.1" id="Layer_1" xmlns="http://www.w3.org/2000/svg" xmlns:xlink="http://www.w3.org/1999/xlink" x="0px" y="0px"
	 viewBox="0 0 144.18 144.18" style="enable-background:new 0 0 144.18 144.18;" xml:space="preserve">
<style type="text/css">
	.st0{fill:#EF465D;}
</style>
<g>
	<path class="st0" d="M56.54,101.6l0-0.06c-0.01-0.08-0.02-0.15-0.03-0.23L56.54,101.6z"/>
	<path class="st0" d="M56.24,100.54l0.03,0.03c-0.01-0.02-0.03-0.05-0.05-0.07C56.23,100.52,56.24,100.53,56.24,100.54z"/>
	<path class="st0" d="M117.76,0H26.42C11.83,0,0,11.83,0,26.42v91.34c0,14.59,11.83,26.42,26.42,26.42h91.34
		c14.59,0,26.42-11.83,26.42-26.42V26.42C144.18,11.83,132.35,0,117.76,0z M106.28,95.94c0,0.02-0.01,0.04-0.01,0.06
		c-0.12,8.77-7.25,15.85-16.05,15.85c-8.79,0-15.93-7.06-16.06-15.81c-0.13-8.55,6.68-15.85,15.22-16.29
		c3.53-0.18,6.81,0.79,9.54,2.55c0.56-6.27-1.91-27.96-2.53-33.2l-0.03-1.17l-0.42,0.03l-39.52,3.18l-0.02,8.07l0.15,42.33
		c0.01,0.1,0.02,0.19,0.03,0.29c0.49,2.23,0.56,4.61-0.05,7.11c-1.8,7.31-8.48,12.61-16.01,12.43c-2.67-0.06-5.18-0.79-7.38-2
		c-3.41-0.71-4.86-3.07-5.46-4.95c-2.19-3.18-3.27-7.17-2.67-11.44c0.98-6.93,6.52-12.5,13.44-13.54c3.77-0.56,7.32,0.2,10.3,1.87
		l1.09-53.85c0.05-2.25,1.64-4.18,3.84-4.65l46.74-9.9c3.02-0.64,5.86,1.66,5.86,4.74V95.94z"/>
	<path class="st0" d="M56.27,100.57c0.13,0.22,0.2,0.48,0.24,0.75l-0.24-2.42L56.27,100.57z"/>
</g>
</svg>
